<?xml version="1.0" encoding="UTF-8"?>
<svg xmlns="http://www.w3.org/2000/svg" xmlns:xlink="http://www.w3.org/1999/xlink" width="120px" height="148px" viewBox="0 0 120 148" version="1.1">
<g id="surface1">
<path style=" stroke:none;fill-rule:nonzero;fill:rgb(60.392159%,1.176471%,1.176471%);fill-opacity:1;" d="M 111.035156 17.414062 C 112.074219 33.554688 111.699219 49.414062 109.90625 59.546875 C 102.546875 101.964844 77.640625 126.367188 34.152344 133.683594 C 28.207031 134.714844 21.601562 135.5625 19.527344 135.464844 C 15.753906 135.371094 15.660156 135.371094 18.207031 134.4375 C 20.847656 133.496094 21.414062 132.371094 19.90625 131.339844 C 18.492188 130.585938 8.492188 135.277344 8.492188 136.78125 C 8.492188 138.28125 19.433594 143.726562 20.472656 142.691406 C 20.941406 142.316406 20.285156 141.191406 19.152344 140.347656 C 17.167969 138.65625 17.167969 138.65625 23.871094 138 C 75.1875 133.308594 105.945312 105.4375 113.207031 57.199219 C 114.433594 49.035156 114.621094 21.074219 113.492188 12.25 C 113.019531 8.964844 112.167969 6.527344 111.507812 6.246094 C 110.472656 5.964844 110.378906 8.03125 111.035156 17.414062 Z M 111.035156 17.414062 "/>
</g>
</svg>
