 <svg  version="1.0" xmlns="http://www.w3.org/2000/svg"  width="130pt" height="100pt" viewBox="0 0 1350.000000 843.000000"  preserveAspectRatio="xMidYMid meet">  <g transform="translate(0.000000,843.000000) scale(0.100000,-0.100000)" fill="#9b0303" stroke="none"> <path d="M5835 8068 c-144 -10 -489 -32 -825 -53 -135 -8 -348 -22 -475 -30 -126 -8 -338 -22 -470 -30 -508 -32 -666 -46 -704 -63 -36 -16 -93 -56 -141 -98 -38 -34 -320 -274 -374 -319 -71 -59 -108 -90 -231 -195 -61 -52 -133 -113 -159 -135 -57 -47 -86 -90 -110 -163 -17 -49 -17 -62 -2 -200 9 -81 16 -188 16 -238 0 -120 -19 -162 -120 -268 -117 -122 -123 -139 -121 -321 0 -82 6 -217 11 -300 13 -180 13 -177 11 -191 0 -6 -20 -14 -44 -16 -24 -3 -56 -13 -70 -23 l-28 -18 3 -120 c4 -168 -6 -161 263 -164 167 -2 209 -5 229 -18 18 -12 44 -15 107 -13 l84 3 6 110 c15 271 125 484 328 634 126 93 227 134 381 152 199 23 375 -15 530 -116 134 -86 229 -192 292 -325 59 -122 80 -205 87 -345 l6 -110 89 -3 c69 -2 92 1 106 13 15 13 248 15 2175 15 1948 1 2159 -1 2175 -15 14 -12 36 -15 101 -13 l84 3 6 100 c8 121 29 220 65 306 94 220 272 385 497 460 86 29 102 31 247 32 132 0 165 -3 222 -21 260 -82 444 -255 540 -507 29 -76 41 -140 47 -255 l6 -115 89 -3 c73 -2 92 0 108 15 17 16 39 17 202 15 215 -4 258 4 286 51 23 37 28 161 9 215 -11 33 -59 62 -103 62 -31 0 -31 0 -14 243 17 245 8 279 -116 472 -21 33 -57 89 -80 125 -152 237 -201 281 -371 330 -29 8 -64 20 -135 45 -19 7 -143 48 -275 90 -132 42 -256 83 -275 90 -76 27 -106 37 -135 45 -39 11 -91 29 -133 46 -18 8 -39 14 -47 14 -8 0 -29 6 -47 14 -18 8 -58 24 -88 36 -30 11 -64 25 -75 29 -11 5 -38 15 -60 24 -22 8 -76 29 -120 47 -44 18 -96 38 -115 45 -19 7 -71 27 -115 45 -44 18 -96 38 -115 45 -19 7 -71 27 -115 45 -44 18 -98 39 -120 47 -22 8 -53 21 -70 28 -16 7 -49 20 -72 29 -24 9 -62 23 -85 32 -24 9 -56 22 -73 29 -16 7 -48 20 -70 28 -22 8 -76 29 -120 47 -44 18 -98 39 -120 47 -22 8 -53 21 -70 28 -16 7 -48 19 -70 28 -77 29 -130 50 -160 62 -16 7 -50 21 -75 30 -25 9 -58 23 -73 31 -16 8 -37 14 -47 14 -10 0 -21 4 -25 10 -3 5 -20 14 -38 19 -18 5 -57 19 -87 31 -30 12 -68 25 -85 30 -16 5 -61 19 -100 33 -38 13 -97 31 -130 41 -33 10 -80 23 -105 31 -43 12 -106 26 -265 59 -272 56 -621 76 -940 54z m660 -177 c307 -44 579 -106 765 -176 80 -29 119 -45 195 -75 44 -18 96 -38 115 -45 19 -7 69 -26 110 -43 41 -16 100 -40 130 -52 30 -11 64 -25 75 -29 11 -5 38 -15 60 -24 22 -8 76 -29 120 -47 44 -18 98 -39 120 -47 22 -8 54 -21 70 -28 17 -7 50 -20 75 -30 25 -9 58 -23 73 -31 16 -8 35 -14 42 -14 7 0 26 -6 42 -14 15 -8 48 -22 73 -31 25 -9 56 -23 70 -30 30 -15 222 -263 214 -276 -8 -13 -99 -11 -254 6 -74 8 -162 15 -195 15 -57 0 -230 12 -645 45 -102 9 -205 15 -230 15 -25 0 -133 6 -240 15 -107 8 -294 22 -415 30 -121 8 -305 22 -410 30 -104 9 -211 15 -236 15 -55 0 -69 13 -75 72 -3 24 -11 84 -19 133 -8 50 -21 133 -29 185 -34 223 -47 309 -57 368 -5 35 -7 68 -3 74 8 13 343 5 459 -11z m-669 -3 c4 -6 11 -169 17 -362 5 -193 10 -367 11 -386 l1 -35 -60 -3 c-33 -2 -98 3 -145 12 -47 8 -132 22 -190 31 -58 9 -145 22 -195 30 -49 8 -137 21 -195 30 -58 9 -145 22 -195 30 -49 8 -137 21 -195 30 -58 9 -145 22 -195 30 -49 8 -137 21 -195 30 -177 26 -274 46 -287 59 -7 6 -17 58 -23 116 -5 58 -15 139 -21 182 -7 42 -9 83 -6 92 5 13 24 16 104 16 54 0 170 7 258 15 88 8 189 15 225 15 36 0 160 6 275 15 537 38 645 45 720 46 44 1 109 5 145 9 103 11 138 11 146 -2z m-2028 -135 c5 -10 12 -91 15 -180 6 -146 5 -162 -11 -168 -9 -3 -57 1 -107 9 -49 8 -137 22 -195 31 -254 38 -310 54 -310 91 0 13 195 180 238 203 17 10 74 17 162 21 74 4 149 7 167 8 22 1 35 -4 41 -15z m422 -582 c156 -23 255 -43 261 -53 9 -14 -7 -68 -23 -84 -9 -9 -27 -10 -63 -4 -27 5 -104 16 -170 25 -227 30 -210 25 -213 69 -6 75 2 77 208 47z m2345 -327 c88 -9 166 -18 173 -20 16 -5 16 -78 -1 -92 -9 -8 -50 -8 -137 -1 -69 5 -164 12 -213 15 -98 7 -107 14 -100 77 l5 37 57 0 c31 0 128 -7 216 -16z"/> <path d="M11895 5576 c-106 -29 -212 -116 -260 -213 -26 -51 -30 -71 -33 -162 -4 -101 4 -143 39 -201 5 -8 13 -24 18 -35 13 -28 100 -109 136 -127 84 -42 107 -48 200 -48 85 0 102 3 161 31 80 38 173 126 201 189 11 25 26 76 33 112 25 123 -21 256 -125 364 -27 29 -128 78 -188 93 -57 13 -128 12 -182 -3z"/> <path d="M4728 5003 c-16 -4 -18 -18 -18 -109 l0 -104 334 0 c184 0 341 -3 350 -6 10 -4 16 -18 16 -39 0 -25 7 -38 28 -52 15 -10 249 -129 519 -263 271 -135 493 -250 493 -256 0 -6 -156 -89 -347 -184 -190 -95 -355 -182 -365 -192 -16 -16 -18 -37 -18 -211 0 -188 1 -194 23 -213 12 -11 176 -96 364 -190 189 -93 343 -174 343 -179 0 -12 17 -3 -345 -183 -154 -76 -289 -143 -300 -150 -11 -6 -89 -45 -172 -87 l-153 -75 -547 2 -548 3 -3 171 c-2 121 -6 175 -15 182 -16 12 -235 -5 -552 -43 -66 -9 -140 -15 -165 -15 -25 0 -74 -5 -110 -11 -36 -5 -117 -14 -180 -19 -63 -5 -155 -13 -205 -19 -49 -6 -162 -17 -250 -26 -88 -9 -218 -22 -290 -30 -71 -9 -151 -15 -176 -15 -25 0 -70 -5 -100 -10 -30 -6 -107 -14 -170 -19 -63 -5 -157 -14 -209 -20 -52 -6 -167 -18 -255 -26 -88 -9 -223 -22 -300 -30 -77 -8 -212 -21 -300 -30 -246 -24 -404 -43 -415 -50 -11 -7 -14 -153 -4 -179 6 -15 502 -16 5524 -16 4402 0 5520 3 5527 13 6 6 18 37 28 67 10 30 24 73 32 95 7 22 14 56 15 75 l3 34 -150 18 c-82 9 -222 24 -310 33 -88 8 -203 20 -255 26 -52 6 -142 14 -200 19 -58 5 -148 13 -200 19 -52 6 -167 18 -255 26 -88 9 -223 22 -300 30 -186 19 -427 43 -605 60 -80 8 -212 21 -295 30 -82 8 -179 16 -215 17 l-65 3 -5 -180 -5 -180 -545 -3 -545 -3 -487 243 c-269 134 -488 248 -488 253 0 6 158 88 350 184 192 95 354 179 360 186 7 8 9 88 8 221 l-3 208 -357 180 c-197 99 -358 185 -358 191 0 5 222 120 493 254 270 135 506 255 524 268 22 16 33 33 35 56 l3 32 340 5 340 5 3 99 c2 73 -1 102 -10 108 -13 8 -3859 9 -3890 1z m2936 -222 c6 -9 -971 -501 -994 -501 -24 0 -1000 491 -995 501 8 12 1982 12 1989 0z m-609 -899 l370 -187 3 -105 3 -105 -376 -188 c-206 -103 -380 -187 -385 -187 -6 0 -178 84 -384 187 -284 141 -376 191 -380 207 -8 31 -7 169 2 183 4 6 122 68 262 138 140 70 307 153 370 185 63 33 122 59 130 59 8 0 182 -85 385 -187z m-4 -1168 c225 -113 368 -189 362 -195 -13 -13 -1483 -7 -1484 6 -1 10 706 371 734 373 9 1 184 -82 388 -184z"/> <path d="M12460 4855 c-71 -16 -107 -35 -205 -106 -44 -32 -165 -119 -270 -193 -474 -335 -599 -426 -603 -436 -2 -5 26 -37 62 -71 36 -33 75 -76 87 -95 11 -19 27 -34 34 -34 14 0 84 46 226 148 46 34 122 89 169 122 47 33 135 96 195 140 61 44 118 80 127 80 10 0 29 -18 43 -40 30 -47 42 -50 50 -12 3 15 13 49 21 76 7 26 14 55 14 63 0 28 40 90 76 118 32 24 46 28 108 29 61 1 76 -3 104 -23 97 -73 98 -126 12 -446 -12 -44 -26 -96 -30 -115 -5 -19 -18 -71 -30 -115 -12 -44 -24 -90 -27 -102 -3 -12 8 -55 25 -96 16 -40 33 -92 36 -114 7 -39 6 -42 -36 -73 -24 -19 -47 -38 -53 -44 -5 -6 -66 -56 -134 -111 -68 -55 -144 -117 -170 -138 -25 -20 -80 -64 -121 -96 -137 -107 -154 -129 -191 -248 -12 -37 -34 -106 -49 -153 -15 -47 -42 -132 -60 -190 -17 -58 -38 -121 -45 -140 -7 -19 -20 -62 -30 -95 -9 -33 -23 -76 -30 -95 -7 -19 -21 -62 -30 -95 -10 -33 -24 -76 -31 -95 -20 -53 -27 -116 -19 -176 6 -48 13 -61 54 -102 94 -94 223 -97 315 -7 33 32 47 56 65 115 12 41 29 91 36 110 7 19 21 62 30 95 10 33 23 76 30 95 7 19 21 62 30 95 10 33 23 76 30 95 7 19 21 62 30 95 10 33 23 76 30 95 8 19 25 74 40 122 29 96 26 93 194 228 51 41 98 80 105 85 6 6 67 55 135 110 68 55 144 117 170 138 25 20 80 64 121 96 130 101 163 139 188 212 26 77 29 186 8 263 -8 28 -22 80 -32 116 -17 64 -38 132 -70 220 -22 64 -98 218 -128 263 -14 21 -26 40 -26 42 0 7 -63 99 -123 178 -61 81 -146 157 -207 184 -33 14 -163 44 -185 42 -5 -1 -35 -7 -65 -14z"/> <path d="M12509 4581 c-39 -33 -56 -79 -114 -311 -9 -36 -22 -87 -30 -115 -7 -27 -20 -77 -28 -110 -38 -148 -34 -141 -90 -178 -28 -18 -92 -60 -142 -92 -49 -32 -121 -79 -160 -104 -38 -25 -74 -48 -80 -51 -5 -3 -35 -21 -66 -41 -99 -65 -130 -135 -90 -206 44 -77 123 -104 194 -65 33 18 180 112 255 163 23 16 44 29 46 29 2 0 54 34 116 75 62 41 114 75 117 75 8 0 87 63 103 84 15 17 28 60 66 211 9 33 22 80 30 105 8 25 14 53 14 64 0 10 7 39 15 65 8 25 21 75 30 111 9 36 23 85 31 110 19 61 18 85 -8 132 -44 78 -145 102 -209 49z"/> <path d="M10810 4190 c-76 -10 -129 -27 -210 -71 -8 -5 -35 -18 -59 -31 -24 -12 -79 -60 -122 -106 -167 -177 -233 -409 -179 -633 50 -212 189 -385 380 -476 124 -59 164 -68 305 -68 100 0 143 5 185 19 141 47 257 120 344 217 48 54 116 160 116 183 0 6 4 16 10 22 5 5 19 45 30 88 78 307 -81 647 -370 792 -121 60 -276 83 -430 64z m255 -258 c164 -57 270 -178 309 -352 16 -70 16 -81 1 -153 -35 -168 -130 -285 -287 -348 -59 -25 -84 -29 -162 -29 -130 0 -217 35 -314 125 -142 131 -181 342 -98 525 40 90 133 173 245 221 57 24 79 28 161 29 66 0 111 -5 145 -18z"/> <path d="M10843 3690 c-99 -47 -140 -133 -117 -248 14 -71 121 -152 199 -152 45 0 116 33 154 72 19 19 38 55 47 85 14 48 14 58 0 106 -37 126 -169 190 -283 137z"/> <path d="M12964 3187 c-52 -41 -187 -150 -194 -157 -3 -3 -60 -49 -127 -103 l-123 -98 1 -67 c0 -37 4 -98 8 -137 11 -97 10 -98 -64 -90 -85 9 -103 2 -111 -43 -4 -20 -13 -49 -20 -63 -7 -15 -15 -46 -16 -70 l-3 -44 143 -5 c145 -5 161 -10 162 -47 0 -34 140 -317 202 -407 57 -85 101 -120 166 -131 147 -24 262 70 262 215 0 67 -4 76 -90 220 -113 189 -168 352 -191 564 -11 102 -11 133 4 239 15 110 32 189 52 240 11 27 -15 20 -61 -16z"/> <path d="M2300 1915 c-53 -16 -97 -54 -128 -108 -31 -53 -31 -169 -1 -227 39 -74 119 -120 211 -120 124 0 216 83 225 204 11 133 -43 216 -166 255 -44 14 -85 13 -141 -4z m151 -59 c66 -28 99 -83 99 -163 0 -67 -33 -129 -81 -153 -56 -29 -140 -27 -186 4 -55 38 -73 76 -73 154 0 61 3 71 31 105 52 63 136 84 210 53z"/> <path d="M3049 1916 c-52 -16 -106 -61 -131 -109 -32 -63 -30 -179 4 -233 52 -81 112 -114 204 -114 73 0 144 37 185 96 47 68 15 104 -36 42 -86 -104 -225 -106 -297 -5 -33 46 -32 160 1 203 34 44 90 74 138 74 58 0 91 -16 140 -68 45 -46 66 -50 71 -13 5 35 -80 113 -141 129 -56 14 -89 14 -138 -2z"/> <path d="M6335 1916 c-53 -14 -127 -88 -143 -142 -48 -163 54 -314 213 -314 34 0 73 8 99 19 75 35 136 115 108 143 -12 12 -47 -4 -55 -26 -3 -9 -25 -29 -48 -46 -34 -25 -52 -30 -96 -30 -88 0 -144 42 -169 126 -13 46 -13 56 2 100 27 82 83 124 166 124 52 0 95 -23 139 -72 25 -29 41 -39 52 -35 30 11 18 45 -31 94 -67 67 -141 86 -237 59z"/> <path d="M404 1912 c-6 -4 -21 -32 -34 -62 -12 -30 -27 -68 -35 -85 -7 -16 -27 -66 -45 -110 -17 -44 -38 -92 -46 -107 -16 -31 -18 -74 -4 -83 16 -10 38 13 60 61 l19 44 105 0 c97 0 106 -2 120 -22 9 -12 16 -30 16 -40 0 -21 37 -48 56 -41 18 7 9 41 -41 158 -54 125 -105 252 -105 262 0 12 -30 33 -47 33 -4 0 -13 -4 -19 -8z m62 -169 c49 -107 46 -117 -39 -121 -53 -2 -69 0 -73 12 -7 18 58 186 72 186 3 0 21 -34 40 -77z"/> <path d="M928 1914 c-5 -4 -8 -105 -8 -225 0 -188 2 -218 16 -223 26 -10 166 -7 209 5 21 6 54 26 72 44 42 42 45 93 8 147 -25 37 -33 68 -17 68 5 0 14 17 21 38 11 32 10 44 -2 74 -25 60 -55 72 -182 76 -60 2 -113 0 -117 -4z m198 -54 c52 -20 67 -61 38 -105 -15 -23 -22 -25 -100 -25 l-84 0 0 63 c0 35 3 67 7 70 10 11 109 8 139 -3z m41 -212 c33 -31 31 -80 -4 -108 -23 -18 -38 -20 -102 -18 l-76 3 -3 73 -3 72 82 0 c71 0 86 -3 106 -22z"/> <path d="M1524 1906 c-10 -27 7 -36 71 -36 48 0 64 -4 69 -16 3 -9 6 -98 6 -199 0 -160 2 -184 16 -189 38 -15 43 9 46 208 l3 191 70 5 c62 4 70 7 70 25 0 19 -8 20 -173 23 -145 2 -173 0 -178 -12z"/> <path d="M3662 1908 c-17 -17 -17 -419 0 -436 15 -15 231 -16 259 -2 26 14 24 38 -3 45 -13 3 -63 6 -113 8 l-90 2 0 70 0 70 95 3 c98 3 116 11 99 44 -8 14 -25 18 -102 20 l-92 3 -3 44 c-7 90 -5 91 108 91 100 0 122 8 100 35 -16 19 -239 22 -258 3z"/> <path d="M4257 1913 c-4 -3 -7 -104 -7 -224 0 -227 2 -238 43 -217 13 7 17 22 17 73 l0 65 53 0 c108 0 184 45 205 123 22 78 -35 167 -115 180 -51 9 -188 9 -196 0z m206 -62 c13 -5 32 -26 42 -47 16 -34 16 -39 2 -70 -25 -51 -55 -65 -129 -62 l-63 3 -3 83 c-4 106 3 116 75 108 28 -3 63 -10 76 -15z"/> <path d="M4883 1913 c-10 -3 -13 -57 -13 -218 0 -176 3 -215 15 -225 25 -21 202 -9 245 16 70 40 91 138 39 182 -23 20 -25 55 -4 72 10 8 15 30 15 62 0 42 -4 54 -30 78 -16 15 -44 30 -61 34 -37 7 -188 7 -206 -1z m202 -57 c31 -14 35 -19 35 -54 0 -61 -21 -73 -116 -70 l-79 3 -3 53 c-2 31 2 60 9 68 15 19 109 18 154 0z m30 -211 c14 -13 25 -36 25 -50 0 -14 -11 -37 -25 -50 -21 -22 -33 -25 -98 -25 -43 0 -78 5 -85 12 -13 13 -17 120 -5 131 3 4 42 7 85 7 70 0 82 -3 103 -25z"/> <path d="M5517 1913 c-4 -3 -7 -104 -7 -224 0 -283 4 -286 144 -87 34 47 79 111 100 142 21 30 43 53 48 50 4 -3 8 -77 8 -165 0 -133 2 -161 15 -165 8 -4 22 -1 30 6 22 18 22 422 0 440 -25 21 -48 1 -120 -100 -120 -170 -146 -205 -155 -208 -6 -2 -10 55 -10 145 0 103 -4 153 -12 161 -13 13 -31 16 -41 5z"/> <path d="M12567 1353 c-12 -11 -8 -39 13 -87 l21 -46 128 0 128 0 17 38 c10 22 16 52 14 68 -3 27 -6 29 -54 32 -46 3 -54 0 -73 -24 -12 -15 -21 -33 -21 -40 0 -25 -21 -14 -32 16 -5 17 -18 35 -28 40 -21 11 -103 14 -113 3z"/> <path d="M207 1133 c-4 -3 -7 -145 -7 -314 l0 -307 27 -33 c50 -58 54 -59 486 -59 309 0 397 -3 405 -13 6 -7 12 -37 14 -67 l3 -55 58 -3 c76 -4 87 6 87 77 0 75 -14 121 -50 166 l-30 38 0 276 c0 202 -3 280 -12 289 -16 16 -100 16 -116 0 -9 -9 -12 -83 -12 -273 0 -241 -1 -263 -18 -278 -17 -15 -56 -17 -350 -17 -317 0 -332 1 -342 19 -6 12 -10 119 -10 278 0 188 -3 262 -12 271 -13 13 -110 17 -121 5z"/> <path d="M1519 1133 c-14 -2 -41 -20 -60 -39 l-34 -35 0 -274 c0 -262 1 -275 21 -302 11 -15 37 -36 57 -46 34 -16 74 -17 475 -15 l437 3 3 68 3 67 -414 0 c-474 0 -447 -5 -447 88 0 29 1 53 3 54 1 1 180 5 397 8 l395 5 3 60 c3 48 0 62 -15 72 -13 11 -100 13 -390 13 -206 -1 -378 2 -383 5 -6 3 -10 28 -10 54 0 84 -21 80 446 83 l409 3 0 65 0 65 -435 1 c-239 1 -447 -1 -461 -3z"/> <path d="M2582 1128 c-9 -9 -12 -99 -12 -344 0 -183 3 -339 6 -348 8 -21 116 -23 132 -3 7 8 13 68 14 143 l3 129 355 0 355 0 5 -140 5 -140 53 -3 c31 -2 60 2 68 9 12 9 14 71 14 355 l0 344 -23 5 c-13 4 -43 5 -68 3 l-44 -3 -5 -135 -5 -135 -345 -5 c-190 -3 -351 -3 -357 -1 -10 2 -13 37 -13 130 0 85 -4 131 -12 139 -16 16 -110 16 -126 0z"/> <path d="M3738 1129 c-21 -12 -25 -98 -6 -117 9 -9 69 -12 209 -12 147 0 200 -3 206 -12 4 -7 10 -137 13 -288 l5 -275 53 -3 c31 -2 60 2 68 9 11 9 14 60 14 279 0 210 3 270 13 279 9 7 86 12 213 13 l199 3 0 65 0 65 -485 2 c-317 2 -491 -1 -502 -8z"/> <path d="M4892 1132 c-9 -7 -12 -85 -10 -358 l3 -349 44 -3 c92 -7 91 -8 91 132 0 69 3 131 6 140 5 14 48 16 381 16 359 0 377 1 408 20 46 29 69 81 73 171 5 103 -16 176 -60 209 l-33 25 -445 3 c-245 1 -451 -1 -458 -6z m838 -152 c15 -15 19 -29 16 -61 -3 -23 -8 -45 -13 -50 -10 -10 -687 -14 -703 -4 -13 8 -13 91 0 116 10 18 25 19 345 19 321 0 336 -1 355 -20z"/> <path d="M6130 1133 c-29 -6 -66 -37 -85 -74 -17 -32 -24 -614 -8 -630 6 -6 37 -9 69 -7 l59 3 5 140 5 140 355 0 355 0 3 -129 c1 -75 7 -135 14 -143 13 -16 110 -17 126 -1 9 9 12 89 12 300 0 247 -2 294 -16 321 -22 43 -49 67 -87 78 -31 9 -758 11 -807 2z m741 -143 c15 -9 19 -22 19 -70 0 -41 -4 -60 -12 -60 -138 -3 -692 1 -699 5 -11 7 -12 95 -1 111 4 6 14 14 22 17 28 10 650 8 671 -3z"/> <path d="M7400 1122 c-64 -34 -70 -60 -70 -302 0 -257 -1 -260 -84 -260 -40 0 -55 -4 -60 -16 -9 -23 -7 -69 4 -98 9 -25 13 -26 87 -26 88 1 134 18 167 63 20 27 21 44 24 260 2 143 7 237 14 244 8 10 88 13 349 13 324 0 339 -1 349 -19 6 -12 10 -120 10 -280 0 -297 -4 -285 88 -279 l47 3 3 313 c2 307 2 314 -19 344 -41 57 -51 58 -481 58 -362 0 -396 -1 -428 -18z"/> <path d="M8493 1133 c-10 -4 -13 -82 -13 -343 0 -186 3 -345 6 -354 5 -14 53 -16 439 -16 301 0 442 4 466 12 77 26 103 86 97 224 -5 127 -35 174 -124 195 -21 5 -190 9 -374 9 -184 -1 -341 -1 -347 0 -10 0 -13 33 -13 130 0 118 -2 130 -19 140 -20 10 -96 13 -118 3z m841 -439 c23 -23 21 -89 -4 -114 -20 -20 -31 -20 -358 -18 l-337 3 -3 59 c-2 32 -1 65 2 72 4 12 68 14 345 14 295 0 342 -2 355 -16z"/> <path d="M9643 1134 c-20 -9 -18 -687 1 -703 8 -7 37 -11 68 -9 l53 3 5 140 5 140 355 0 355 0 5 -130 c3 -72 9 -136 13 -142 13 -20 123 -17 131 3 3 9 6 165 6 348 0 245 -3 335 -12 344 -16 16 -110 16 -126 0 -8 -8 -12 -54 -12 -140 0 -96 -3 -128 -12 -128 -205 -4 -693 1 -699 7 -5 5 -10 67 -11 138 l-3 130 -55 2 c-30 1 -61 -1 -67 -3z"/> <path d="M10795 1127 c-3 -6 -4 -167 -3 -357 l3 -345 430 -3 c466 -3 483 -2 532 50 28 29 28 30 28 161 0 123 -2 135 -23 162 -46 59 -53 60 -447 62 -198 2 -365 5 -372 8 -10 3 -13 37 -13 128 0 82 -4 127 -12 135 -16 16 -117 16 -123 -1z m843 -429 c18 -18 15 -103 -4 -122 -13 -14 -59 -16 -348 -16 -245 0 -335 3 -344 12 -13 13 -17 120 -5 131 3 4 160 7 348 7 252 0 344 -3 353 -12z"/> <path d="M11946 1124 c-14 -13 -16 -59 -16 -343 0 -250 3 -331 13 -345 10 -14 25 -17 72 -14 l60 3 3 349 c2 273 -1 351 -10 358 -23 14 -106 9 -122 -8z"/> <path d="M12235 1127 c-3 -6 -4 -167 -3 -357 l3 -345 63 -3 c52 -2 68 1 95 19 60 43 171 124 416 307 135 100 253 182 263 182 17 0 18 -15 18 -239 0 -132 3 -246 6 -255 9 -23 119 -23 128 0 3 9 6 165 6 348 0 245 -3 335 -12 344 -19 19 -118 15 -154 -7 -25 -15 -493 -362 -631 -467 -64 -48 -63 -51 -63 219 0 176 -3 246 -12 255 -16 16 -117 16 -123 -1z"/> </g> </svg>