<svg version="1.1" xmlns="http://www.w3.org/2000/svg" xmlns:xlink="http://www.w3.org/1999/xlink" width="300px" height="187px" viewBox="0,0,256,159.5625"><g transform=""><g fill="#ebebeb" fill-rule="nonzero" stroke="none" stroke-width="1" stroke-linecap="butt" stroke-linejoin="miter" stroke-miterlimit="10" stroke-dasharray="" stroke-dashoffset="0" font-family="none" font-weight="none" font-size="none" text-anchor="none" style="mix-blend-mode: normal"><path d="M0,159.5625v-159.5625h256v159.5625z" id="bgRectangle"></path></g><g fill="#9b0303" fill-rule="nonzero" stroke="none" stroke-width="1" stroke-linecap="butt" stroke-linejoin="miter" stroke-miterlimit="10" stroke-dasharray="" stroke-dashoffset="0" font-family="none" font-weight="none" font-size="none" text-anchor="none" style="mix-blend-mode: normal"><g transform="translate(0.03846,0.01292) scale(0.85619,0.85333)"><g id="surface1"><path d="M0,93.47656v93.48047h298.91016v-186.95703h-298.91016zM140.04688,7.98438c3.80859,0.24219 7.10547,0.64453 9.96094,1.24219c3.52344,0.73047 4.91797,1.04297 5.86719,1.30859c0.55469,0.17578 1.59766,0.46484 2.32813,0.6875c0.73047,0.22266 2.03516,0.62109 2.875,0.91016c0.86719,0.30859 1.86328,0.62109 2.21484,0.73047c0.37891,0.10938 1.21875,0.39844 1.88281,0.66406c0.66406,0.26563 1.52734,0.57813 1.92578,0.6875c0.39844,0.11328 0.77734,0.3125 0.84375,0.42188c0.08594,0.13281 0.33203,0.22266 0.55078,0.22266c0.22266,0 0.6875,0.13281 1.04297,0.30859c0.33203,0.17969 1.0625,0.48828 1.61719,0.6875c0.55078,0.19922 1.30469,0.51172 1.66016,0.66797c0.66406,0.26562 1.83594,0.73047 3.54297,1.375c0.48438,0.19922 1.19531,0.46484 1.54688,0.62109c0.37891,0.15234 1.0625,0.44141 1.55078,0.62109c0.48828,0.17578 1.68359,0.64063 2.65625,1.03906c0.97656,0.40234 2.17188,0.86719 2.66016,1.04297c0.48437,0.17969 1.19531,0.46875 1.54687,0.62109c0.37891,0.15625 1.08594,0.44531 1.61719,0.64453c0.50781,0.19922 1.35156,0.50781 1.88281,0.71094c0.50781,0.19922 1.23828,0.48438 1.59375,0.64063c0.375,0.15625 1.0625,0.44531 1.55078,0.62109c0.48438,0.17969 1.68359,0.64453 2.65625,1.04297c0.97266,0.39844 2.125,0.84375 2.54688,1c0.42188,0.15234 1.57031,0.59766 2.54688,0.99609c0.97266,0.39844 2.125,0.84375 2.54688,0.99609c0.41797,0.15625 1.57031,0.60156 2.54297,1c0.97656,0.39844 2.17187,0.86328 2.66016,1.04297c0.48438,0.19922 1.08203,0.42188 1.32813,0.53125c0.24219,0.08984 0.99609,0.39844 1.66016,0.64453c0.66406,0.26563 1.55078,0.62109 1.94922,0.79688c0.39844,0.17969 0.86328,0.3125 1.03906,0.3125c0.17578,0 0.64063,0.13281 1.03906,0.30859c0.92969,0.37891 2.08203,0.77734 2.94531,1.01953c0.64453,0.17969 1.30859,0.39844 2.98828,1c0.42188,0.15234 3.16797,1.0625 6.08984,1.99609c2.92188,0.92969 5.66797,1.83984 6.08984,1.99609c1.57031,0.55469 2.34766,0.82031 2.98828,0.99609c3.76563,1.08594 4.85156,2.0625 8.21484,7.32031c0.51172,0.79687 1.30859,2.03906 1.77344,2.76953c2.74219,4.28125 2.94141,5.03516 2.56641,10.46875c-0.375,5.39063 -0.375,5.39063 0.30859,5.39063c0.97656,0 2.03906,0.64063 2.28125,1.375c0.42188,1.19531 0.3125,3.94531 -0.19922,4.76563c-0.61719,1.04297 -1.57031,1.22266 -6.33203,1.13281c-3.60937,-0.04297 -4.09375,-0.02344 -4.47266,0.33203c-0.35547,0.33203 -0.77344,0.37891 -2.39062,0.33203l-1.96875,-0.06641l-0.13281,-2.55078c-0.13281,-2.55078 -0.40234,-3.96875 -1.04297,-5.65234c-2.125,-5.58984 -6.19922,-9.42578 -11.95703,-11.24609c-1.26172,-0.39844 -1.99219,-0.46484 -4.91406,-0.46484c-3.21094,0.02344 -3.56641,0.06641 -5.46875,0.71094c-4.98437,1.66016 -8.92187,5.32031 -11.00391,10.19922c-0.79687,1.90625 -1.26172,4.10156 -1.44141,6.78516l-0.13281,2.21875l-1.85937,0.06641c-1.4375,0.04688 -1.92578,-0.01953 -2.23437,-0.28906c-0.35547,-0.30859 -5.02734,-0.35156 -48.16016,-0.33203c-42.66406,0 -47.82422,0.04688 -48.15625,0.33203c-0.3125,0.26953 -0.82031,0.33594 -2.34766,0.28906l-1.97266,-0.06641l-0.13281,-2.4375c-0.15234,-3.10547 -0.61719,-4.94531 -1.92578,-7.65234c-2.14453,-4.50391 -6,-7.73828 -11.22266,-9.38281c-2.34766,-0.73047 -7.10937,-0.66406 -10.03125,0.15625c-3.51953,1 -7.61719,4.10156 -9.63281,7.27344c-1.94922,3.0625 -2.8125,5.8125 -3.01172,9.60547l-0.13281,2.4375l-1.85937,0.06641c-1.39453,0.04688 -1.96875,-0.01953 -2.36719,-0.28906c-0.44531,-0.28516 -1.375,-0.35156 -5.07031,-0.39844c-5.95703,-0.06641 -5.73437,0.08984 -5.82422,-3.63672l-0.06641,-2.66016l0.62109,-0.39844c0.30859,-0.22266 1.01563,-0.44531 1.54688,-0.51172c0.53125,-0.04297 0.97656,-0.22266 0.97656,-0.35547c0.04297,-0.30859 0.04297,-0.24219 -0.24609,-4.23437c-0.10937,-1.83984 -0.24219,-4.83594 -0.24219,-6.65234c-0.04297,-4.03906 0.08984,-4.41406 2.67969,-7.12109c2.23438,-2.35156 2.65625,-3.28125 2.65625,-5.94141c0,-1.10937 -0.15625,-3.48437 -0.35547,-5.28125c-0.33203,-3.05859 -0.33203,-3.34766 0.04687,-4.43359c0.53125,-1.62109 1.17188,-2.57422 2.43359,-3.61719c0.57813,-0.48437 2.17188,-1.83984 3.51953,-2.99219c2.72656,-2.32812 3.54297,-3.01562 5.11719,-4.32422c1.19531,-1 7.4375,-6.32031 8.28125,-7.07422c1.0625,-0.93359 2.32422,-1.82031 3.12109,-2.17578c0.83984,-0.375 4.33984,-0.6875 15.58594,-1.39453c2.92578,-0.17969 7.61719,-0.48828 10.40625,-0.66797c2.8125,-0.17578 7.53125,-0.48438 10.51953,-0.66406c7.4375,-0.46484 15.07812,-0.95312 18.26562,-1.17578c4.03125,-0.28906 6.71094,-0.28906 10.85156,-0.04297zM267.40234,63.22656c3.76563,0.91016 6.13672,3.39453 6.95313,7.36328c0.3125,1.48828 0.02344,3.48438 -0.75,5.25781c-0.62109,1.39453 -2.67969,3.34766 -4.45312,4.19141c-1.30469,0.62109 -1.68359,0.6875 -3.5625,0.6875c-2.0625,0 -2.57031,-0.13281 -4.42969,-1.06641c-0.79687,-0.39844 -2.72266,-2.19531 -3.01172,-2.81641c-0.10938,-0.24219 -0.28906,-0.59766 -0.39844,-0.77344c-0.77344,-1.28906 -0.95312,-2.21875 -0.86328,-4.46094c0.06641,-2.01562 0.15625,-2.46094 0.73047,-3.58984c0.70703,-1.42187 2.70312,-3.4375 4.05078,-4.08203c1.88281,-0.91016 3.85547,-1.15234 5.73438,-0.71094zM190.81641,76.02344c0.19922,0.13281 0.26563,0.77734 0.22266,2.39453l-0.06641,2.19531l-7.53125,0.11328l-7.52734,0.10938l-0.06641,0.71094c-0.04297,0.50781 -0.28516,0.88672 -0.77344,1.24219c-0.39844,0.28906 -5.625,2.94922 -11.60156,5.94141c-6,2.97266 -10.91797,5.52344 -10.91797,5.63281c0,0.13281 3.56641,2.04297 7.92578,4.23828l7.90625,3.99219l0.06641,4.61328c0.02344,2.94922 -0.02344,4.72266 -0.17578,4.89844c-0.13281,0.15625 -3.72266,2.01953 -7.97266,4.125c-4.25,2.12891 -7.75,3.94922 -7.75,4.08203c0,0.10938 4.85156,2.64063 10.80469,5.60938l10.78516,5.39063l24.13281,-0.13281l0.10938,-3.99219l0.11328,-3.99219l1.4375,0.06641c0.79688,0.02344 2.94531,0.19922 4.76172,0.37891c1.83594,0.19922 4.76172,0.48828 6.53125,0.66406c3.94141,0.375 9.27734,0.91016 13.39453,1.33203c1.70703,0.17578 4.69531,0.46484 6.64453,0.66406c1.94922,0.17578 4.49219,0.44141 5.64453,0.57813c1.15234,0.13281 3.14453,0.30859 4.42969,0.41797c1.28516,0.11328 3.27734,0.28906 4.42969,0.42188c1.14844,0.13281 3.69531,0.39844 5.64453,0.57813c1.94922,0.19922 5.04688,0.53125 6.86328,0.73047l3.32031,0.39844l-0.06641,0.75391c-0.01953,0.42187 -0.17578,1.17578 -0.33203,1.66406c-0.17578,0.48828 -0.48437,1.44141 -0.70703,2.10938c-0.22266,0.66406 -0.48828,1.35156 -0.62109,1.48438c-0.15234,0.22266 -24.91016,0.28906 -122.375,0.28906c-111.19531,0 -122.17969,-0.02344 -122.3125,-0.35547c-0.21875,-0.57812 -0.15234,-3.81641 0.08984,-3.96875c0.24219,-0.15625 3.74219,-0.57812 9.1875,-1.10937c1.94922,-0.19922 4.9375,-0.48828 6.64453,-0.66406c1.70313,-0.17969 4.69531,-0.46875 6.64063,-0.66797c1.94922,-0.17578 4.49609,-0.44141 5.64844,-0.57422c1.15234,-0.13281 3.23047,-0.33594 4.625,-0.44531c1.39844,-0.10937 3.10156,-0.28906 3.76562,-0.42187c0.66406,-0.10937 1.66016,-0.22266 2.21484,-0.22266c0.55469,0 2.32422,-0.13281 3.89453,-0.33203c1.59766,-0.17578 4.47266,-0.46484 6.42187,-0.66406c1.94922,-0.19922 4.45313,-0.44531 5.53516,-0.57812c1.10938,-0.13281 3.14453,-0.30859 4.53906,-0.42187c1.39453,-0.10937 3.19141,-0.30859 3.98828,-0.41797c0.79688,-0.13672 1.87891,-0.24609 2.43359,-0.24609c0.55469,0 2.19141,-0.13281 3.65234,-0.33203c7.01953,-0.84375 11.87109,-1.21875 12.22266,-0.95313c0.19922,0.15625 0.28906,1.35156 0.33203,4.03516l0.06641,3.79297l12.13281,0.06641l12.11328,0.04297l3.38672,-1.66016c1.83984,-0.93359 3.56641,-1.79687 3.80859,-1.92969c0.24609,-0.15625 3.23438,-1.64453 6.64453,-3.32812c8.01563,-3.99219 7.63672,-3.79297 7.63672,-4.05859c0,-0.10937 -3.41016,-1.90625 -7.59375,-3.96875c-4.16406,-2.08594 -7.79297,-3.97266 -8.05859,-4.21484c-0.48828,-0.42187 -0.51172,-0.55469 -0.51172,-4.72266c0,-3.85937 0.04687,-4.32422 0.39844,-4.67969c0.22266,-0.22266 3.875,-2.15234 8.08203,-4.25781c4.23047,-2.10937 7.68359,-3.94922 7.68359,-4.08203c0,-0.13281 -4.91406,-2.68359 -10.91406,-5.67578c-5.98047,-2.97266 -11.16016,-5.61328 -11.49219,-5.83203c-0.46484,-0.3125 -0.62109,-0.60156 -0.62109,-1.15625c0,-0.46484 -0.13281,-0.77344 -0.35156,-0.86328c-0.19922,-0.06641 -3.67578,-0.13281 -7.75,-0.13281h-7.39844v-2.30859c0,-2.01562 0.04688,-2.32812 0.39844,-2.41406c0.6875,-0.17969 85.84375,-0.15625 86.13281,0.01953zM279.09375,79.26172c0.86328,0.17969 1.90625,0.46484 2.32422,0.64453c1.35156,0.59766 3.23438,2.28516 4.58594,4.07813c1.32813,1.75391 2.72266,3.79297 2.72266,3.94922c0,0.04297 0.26563,0.46484 0.57422,0.92969c0.66406,1 2.34766,4.41406 2.83594,5.83594c0.70703,1.94922 1.17188,3.45703 1.55078,4.87891c0.21875,0.79688 0.53125,1.94922 0.70703,2.57031c0.46484,1.70703 0.39844,4.125 -0.17578,5.83203c-0.55469,1.62109 -1.28516,2.46484 -4.16406,4.70313c-0.90625,0.71094 -2.125,1.68359 -2.67969,2.12891c-0.57422,0.46484 -2.25781,1.83984 -3.76172,3.05859c-1.50781,1.22266 -2.85937,2.30859 -2.99219,2.44141c-0.15234,0.10938 -1.19531,0.97656 -2.32422,1.88672c-3.71875,2.99219 -3.65234,2.92578 -4.29297,5.05469c-0.33203,1.06641 -0.71094,2.28516 -0.88672,2.70703c-0.15625,0.42187 -0.44531,1.375 -0.66406,2.10547c-0.19922,0.73047 -0.51172,1.6875 -0.66406,2.10547c-0.15625,0.42188 -0.44531,1.375 -0.66406,2.10938c-0.19922,0.73047 -0.51172,1.68359 -0.66406,2.10547c-0.15625,0.42188 -0.44531,1.375 -0.66406,2.10547c-0.19922,0.73437 -0.51172,1.6875 -0.66406,2.10937c-0.15625,0.42188 -0.53516,1.53125 -0.80078,2.4375c-0.39844,1.30859 -0.70703,1.84375 -1.4375,2.55078c-2.03516,1.99609 -4.89453,1.92969 -6.97266,-0.15625c-0.91016,-0.90625 -1.06641,-1.19531 -1.19922,-2.26172c-0.17578,-1.32812 -0.01953,-2.72656 0.42188,-3.90234c0.15625,-0.42187 0.46484,-1.375 0.6875,-2.10547c0.19922,-0.73437 0.50781,-1.6875 0.66406,-2.10937c0.15625,-0.41797 0.46484,-1.375 0.66406,-2.10547c0.22266,-0.73047 0.50781,-1.68359 0.66406,-2.10547c0.15625,-0.42187 0.62109,-1.82031 0.99609,-3.10547c0.39844,-1.28516 0.99609,-3.17187 1.32813,-4.21484c0.33203,-1.04297 0.82031,-2.57031 1.08594,-3.39063c0.82031,-2.64062 1.19531,-3.12891 4.23047,-5.5c0.90625,-0.71094 2.125,-1.6875 2.67578,-2.12891c0.57813,-0.46875 2.26172,-1.84375 3.76563,-3.0625c1.50391,-1.21875 2.85547,-2.32812 2.96875,-2.46094c0.13281,-0.13281 0.64063,-0.55469 1.17188,-0.97656c0.92969,-0.6875 0.95313,-0.75391 0.79688,-1.61719c-0.06641,-0.48828 -0.44141,-1.64453 -0.79687,-2.53125c-0.375,-0.90625 -0.62109,-1.86328 -0.55469,-2.12891c0.06641,-0.26562 0.33203,-1.28516 0.59766,-2.26172c0.26563,-0.97656 0.55469,-2.12891 0.66406,-2.55078c0.08984,-0.42187 0.39844,-1.57422 0.66406,-2.55078c1.90625,-7.09375 1.88281,-8.26953 -0.26562,-9.89062c-0.61719,-0.44141 -0.94922,-0.53125 -2.30078,-0.50781c-1.375,0.01953 -1.68359,0.10938 -2.39062,0.64063c-0.79688,0.62109 -1.68359,1.99609 -1.68359,2.61719c0,0.17969 -0.15625,0.82031 -0.30859,1.39844c-0.17969,0.59766 -0.39844,1.35156 -0.46484,1.68359c-0.17969,0.84375 -0.44531,0.77734 -1.10937,-0.26563c-0.30859,-0.48828 -0.73047,-0.88672 -0.95312,-0.88672c-0.19922,0 -1.46094,0.80078 -2.80859,1.77344c-1.33203,0.97656 -3.27734,2.375 -4.32031,3.10547c-1.03906,0.73438 -2.72266,1.95313 -3.74219,2.70703c-3.14453,2.26172 -4.69141,3.28125 -5.00391,3.28125c-0.15234,0 -0.50781,-0.33203 -0.75,-0.75391c-0.26562,-0.42187 -1.13281,-1.375 -1.92969,-2.10547c-0.79687,-0.75391 -1.41406,-1.46484 -1.37109,-1.57422c0.08984,-0.22266 2.85547,-2.24219 13.35156,-9.67188c2.32422,-1.64062 5.00391,-3.57031 5.97656,-4.27734c2.17188,-1.57812 2.96875,-1.99609 4.53906,-2.35156c1.59375,-0.37891 1.44141,-0.37891 3.21094,-0.02344zM280.26953,85.14063c0.88281,0.44141 1.8125,1.83984 1.8125,2.70313c0,0.28906 -0.13281,0.97656 -0.30859,1.53125c-0.17578,0.55469 -0.48828,1.64063 -0.6875,2.44141c-0.19922,0.79688 -0.48438,1.90625 -0.66406,2.46094c-0.17578,0.57422 -0.33203,1.21875 -0.33203,1.44141c0,0.24219 -0.13281,0.86328 -0.30859,1.41797c-0.17578,0.55469 -0.46484,1.59766 -0.66406,2.32813c-0.83984,3.35156 -1.12891,4.30469 -1.46094,4.67969c-0.35547,0.46484 -2.10547,1.86328 -2.28125,1.86328c-0.06641,0 -1.21875,0.75391 -2.58984,1.66406c-1.375,0.91016 -2.52344,1.66406 -2.57031,1.66406c-0.04297,0 -0.50781,0.28516 -1.01562,0.64062c-1.66406,1.13281 -4.91797,3.21875 -5.64844,3.61719c-1.57031,0.86328 -3.32031,0.26563 -4.29687,-1.44141c-0.88281,-1.57422 -0.19922,-3.12891 1.99609,-4.57031c0.68359,-0.44141 1.34766,-0.84375 1.46094,-0.91016c0.13281,-0.06641 0.92969,-0.57422 1.76953,-1.12891c0.86328,-0.55469 2.45703,-1.59766 3.54297,-2.30859c1.10937,-0.70703 2.52344,-1.64062 3.14453,-2.03906c1.23828,-0.82031 1.15234,-0.66406 1.99219,-3.94922c0.17969,-0.73047 0.46484,-1.83984 0.62109,-2.4375c0.17578,-0.62109 0.46484,-1.75391 0.66406,-2.55078c0.46484,-1.83984 0.92969,-3.57031 1.39453,-5.05469c0.66406,-2.21875 2.48047,-3.0625 4.42969,-2.0625zM246.61328,94.51953c2.94531,1.01953 4.60547,2.10938 6.64063,4.28125c3.58984,3.85938 5.05078,9.3125 3.80859,14.21484c-0.24219,0.95313 -0.55078,1.83984 -0.66406,1.95313c-0.13281,0.13281 -0.21875,0.35547 -0.21875,0.48828c0,0.50781 -1.50781,2.85938 -2.57031,4.05859c-1.92578,2.14844 -4.49609,3.76953 -7.61719,4.8125c-0.92969,0.30859 -1.88281,0.41797 -4.09375,0.41797c-3.125,0 -4.00781,-0.19922 -6.75391,-1.50781c-4.23047,-2.01562 -7.30859,-5.85156 -8.41406,-10.55469c-1.19531,-4.96875 0.26563,-10.11328 3.96094,-14.03906c0.95313,-1.01953 2.17188,-2.08594 2.70313,-2.35156c0.53125,-0.28516 1.12891,-0.57422 1.30469,-0.6875c1.79688,-0.97266 2.96875,-1.35156 4.65234,-1.57422c2.16797,-0.26562 5.80078,-0.01953 7.26172,0.48828zM288.39453,115.92188c-0.44141,1.12891 -0.82031,2.88281 -1.15234,5.32031c-0.33203,2.35156 -0.33203,3.03906 -0.08984,5.30078c0.51172,4.70313 1.73047,8.31641 4.23047,12.50781c1.90625,3.19531 1.99219,3.39453 1.99219,4.87891c0,2.41797 -1.61719,4.48047 -3.78516,4.76953c-2.54687,0.35547 -4.00781,-0.39844 -5.69141,-2.90625c-1.37109,-1.99609 -4.47266,-8.26953 -4.47266,-9.02344c-0.01953,-0.82031 -0.375,-0.93359 -3.58594,-1.04297l-3.16797,-0.11328l0.06641,-0.97266c0.02344,-0.53516 0.19922,-1.22266 0.35547,-1.55469c0.15625,-0.30859 0.35547,-0.95313 0.44531,-1.39453c0.17578,-1 0.57422,-1.15625 2.45703,-0.95703c1.63672,0.17969 1.66016,0.15625 1.41406,-1.99609c-0.08594,-0.86328 -0.17578,-2.21484 -0.17578,-3.03516l-0.02344,-1.48828l2.72656,-2.17187c1.48047,-1.19922 2.74609,-2.21875 2.8125,-2.28516c0.15234,-0.15625 3.14063,-2.57422 4.29297,-3.48047c1.01953,-0.80078 1.59375,-0.95312 1.35156,-0.35547zM54.04688,144.39844c2.72266,0.86328 3.91797,2.70312 3.67578,5.65234c-0.13281,1.77734 -0.88672,2.97266 -2.41406,3.85938c-2.54687,1.44141 -5.93359,0.51172 -7.23828,-1.99609c-0.66406,-1.28516 -0.66406,-3.85937 0.01953,-5.03125c1.24219,-2.15234 3.74219,-3.19531 5.95703,-2.48437zM70.56641,144.41797c1.34766,0.35547 3.23047,2.08594 3.12109,2.86328c-0.10937,0.82031 -0.57422,0.73047 -1.57422,-0.28906c-1.08203,-1.15234 -1.8125,-1.50781 -3.09766,-1.50781c-1.0625,0 -2.30469,0.66406 -3.05469,1.64063c-0.73047,0.95313 -0.75391,3.48047 -0.02344,4.50391c1.59375,2.23828 4.67188,2.19531 6.57813,-0.11328c1.12891,-1.375 1.83594,-0.57422 0.79688,0.93359c-0.91016,1.30859 -2.48047,2.12891 -4.09766,2.12891c-2.03906,0 -3.36719,-0.73437 -4.51562,-2.53125c-0.46484,-0.73047 -0.55469,-1.15234 -0.55469,-2.55078c0,-1.99219 0.50781,-3.19141 1.75,-4.16797c1.4375,-1.10937 2.87891,-1.375 4.67188,-0.91016zM143.41016,144.41797c1.17578,0.33594 3.16797,2.10938 3.16797,2.86328c0,0.83984 -0.6875,0.77344 -1.52734,-0.19922c-0.97656,-1.08984 -1.92578,-1.59766 -3.07812,-1.59766c-1.83984,0 -3.07812,0.92969 -3.67578,2.75c-0.33203,0.97656 -0.33203,1.19531 -0.04297,2.21875c0.55078,1.86328 1.79297,2.79297 3.73828,2.79297c0.97656,0 1.375,-0.10937 2.12891,-0.66406c0.50781,-0.37891 0.99609,-0.82031 1.0625,-1.02344c0.17578,-0.48437 0.94922,-0.83984 1.21484,-0.57422c0.62109,0.62109 -0.73047,2.39453 -2.39063,3.17188c-1.90234,0.86328 -4.44922,0.375 -5.82031,-1.08594c-0.75391,-0.82422 -1.35156,-2.375 -1.35156,-3.52734c0,-1.62109 0.44141,-2.75 1.55078,-3.83594c1.39453,-1.42187 2.98828,-1.82031 5.02344,-1.28906zM9.98438,144.59766c0.22266,0.13281 0.42188,0.35547 0.42188,0.50781c0,0.22266 1.12891,3.03906 2.32422,5.8125c1.10938,2.59375 1.30859,3.34766 0.91016,3.50391c-0.42187,0.15625 -1.24219,-0.44531 -1.24219,-0.91016c0,-0.22266 -0.15234,-0.62109 -0.35156,-0.88672c-0.3125,-0.44531 -0.51172,-0.48828 -2.66016,-0.48828h-2.32422l-0.42187,0.97656c-0.48437,1.0625 -0.97266,1.57422 -1.32812,1.35156c-0.30859,-0.19922 -0.26562,-1.15234 0.08984,-1.83984c0.17578,-0.33203 0.64063,-1.39844 1.01953,-2.37109c0.39844,-0.97656 0.83984,-2.08594 0.99609,-2.44141c0.17578,-0.37891 0.50781,-1.21875 0.77344,-1.88672c0.64453,-1.55078 0.92969,-1.77344 1.79297,-1.32812zM26.21484,144.88672c0.92969,0.62109 1.35156,1.79297 0.99609,2.85938c-0.15234,0.46484 -0.35156,0.84375 -0.46484,0.84375c-0.35156,0 -0.17578,0.6875 0.37891,1.50781c0.81641,1.19531 0.75,2.32813 -0.17969,3.25781c-0.39844,0.40234 -1.12891,0.84375 -1.59375,0.97656c-0.95312,0.26563 -4.05078,0.33203 -4.62891,0.11328c-0.30859,-0.11328 -0.35156,-0.77734 -0.35156,-4.94922c0,-2.66016 0.06641,-4.89844 0.17578,-4.98828c0.08984,-0.08984 1.26172,-0.13281 2.58984,-0.08984c1.90625,0.04688 2.59375,0.15625 3.07813,0.46875zM41.51563,144.92969c0,0.39844 -0.17578,0.46484 -1.55078,0.55469l-1.55078,0.10938l-0.06641,4.23828c-0.06641,4.41016 -0.17578,4.94531 -1.01562,4.61328c-0.3125,-0.11328 -0.35547,-0.64453 -0.35547,-4.19141c0,-2.24219 -0.06641,-4.21484 -0.13281,-4.41406c-0.10937,-0.26562 -0.46484,-0.35547 -1.52734,-0.35547c-1.41797,0 -1.79297,-0.19922 -1.57422,-0.80078c0.11328,-0.26562 0.73047,-0.30859 3.94141,-0.26562c3.65625,0.06641 3.83203,0.08984 3.83203,0.51172zM86.79688,144.70703c0.48438,0.59766 0,0.77734 -2.21484,0.77734c-2.50391,0 -2.54687,0.02344 -2.39062,2.01953l0.06641,0.97266l2.03516,0.06641c1.70313,0.04688 2.08203,0.13281 2.25781,0.44531c0.37891,0.73047 -0.01953,0.91016 -2.19141,0.97656l-2.10156,0.06641v3.10547l1.99219,0.04297c1.10547,0.04297 2.21484,0.10937 2.5,0.17578c0.59766,0.15625 0.64453,0.6875 0.06641,1c-0.62109,0.30859 -5.40234,0.28906 -5.73437,-0.04687c-0.375,-0.375 -0.375,-9.28906 0,-9.66797c0.42188,-0.42187 5.35938,-0.35547 5.71484,0.06641zM98.59766,144.53125c1.76953,0.28906 3.03125,2.26172 2.54688,3.99219c-0.46484,1.73047 -2.14844,2.72656 -4.53906,2.72656h-1.17578v1.44141c0,1.13281 -0.08984,1.46484 -0.375,1.61719c-0.91016,0.46875 -0.95313,0.22266 -0.95313,-4.8125c0,-2.66016 0.06641,-4.89844 0.15625,-4.96484c0.17578,-0.19922 3.21094,-0.19922 4.33984,0zM112.67969,144.50781c0.375,0.08984 0.99609,0.42188 1.34766,0.75391c0.57813,0.53125 0.66797,0.79688 0.66797,1.73047c0,0.71094 -0.11328,1.19922 -0.33594,1.375c-0.46484,0.375 -0.41797,1.15234 0.08984,1.59766c1.15234,0.97656 0.6875,3.14844 -0.86328,4.03516c-0.95313,0.55469 -4.87109,0.82031 -5.42578,0.35547c-0.26562,-0.22266 -0.33203,-1.08594 -0.33203,-4.99219c0,-3.57031 0.06641,-4.76562 0.28906,-4.83203c0.39844,-0.17969 3.74219,-0.17969 4.5625,-0.02344zM123.0625,144.64063c0.17578,0.17969 0.26563,1.28516 0.26563,3.57031c0,1.99609 0.08984,3.26172 0.22266,3.21484c0.19922,-0.06641 0.77344,-0.83984 3.42969,-4.60937c1.59766,-2.24219 2.10547,-2.68359 2.66016,-2.21875c0.48438,0.39844 0.48438,9.35938 0,9.75781c-0.17969,0.15625 -0.48828,0.22266 -0.66406,0.13281c-0.28906,-0.08984 -0.33203,-0.71094 -0.33203,-3.66016c0,-1.94922 -0.08984,-3.59375 -0.17969,-3.66016c-0.10937,-0.06641 -0.59766,0.44531 -1.0625,1.10938c-0.46484,0.6875 -1.46094,2.10938 -2.21484,3.14844c-1.75,2.48438 -2.41406,3.17188 -2.83203,3.01953c-0.3125,-0.11328 -0.35547,-0.77734 -0.35547,-4.94922c0,-2.66016 0.06641,-4.89844 0.15625,-4.96484c0.21875,-0.24609 0.61719,-0.17969 0.90625,0.10938zM280.75391,157.01563c0.22266,0.11328 0.51172,0.51172 0.62109,0.88672c0.24219,0.66797 0.70703,0.91016 0.70703,0.35547c0,-0.15625 0.19922,-0.55469 0.46484,-0.88672c0.42188,-0.53125 0.60156,-0.59766 1.61719,-0.53125c1.0625,0.06641 1.12891,0.10938 1.19531,0.70703c0.04688,0.35547 -0.08594,1.02344 -0.30859,1.50781l-0.375,0.84375h-5.66797l-0.46484,-1.01953c-0.46484,-1.0625 -0.55469,-1.68359 -0.28906,-1.92969c0.22266,-0.24219 2.03516,-0.17578 2.5,0.06641zM7.26172,161.94141c0.19922,0.19922 0.26563,1.83984 0.26563,6.00781c0,3.52734 0.08984,5.89844 0.22266,6.16406c0.22266,0.40234 0.55469,0.42188 7.57031,0.42188c6.51172,0 7.375,-0.04297 7.75,-0.375c0.37891,-0.33203 0.39844,-0.82031 0.39844,-6.16797c0,-4.21094 0.06641,-5.85156 0.26563,-6.05078c0.35547,-0.35547 2.21484,-0.35547 2.57031,0c0.19922,0.19922 0.26562,1.92578 0.26562,6.40625v6.12109l0.66406,0.84375c0.79688,0.99609 1.10547,2.01953 1.10547,3.67969c0,1.57812 -0.24219,1.79687 -1.92578,1.71094l-1.28516,-0.06641l-0.06641,-1.22266c-0.04297,-0.66406 -0.17578,-1.32812 -0.30859,-1.48437c-0.17578,-0.22266 -2.125,-0.28906 -8.96875,-0.28906c-9.5625,0 -9.65234,-0.02344 -10.75781,-1.30859l-0.59766,-0.73047v-6.80859c0,-3.75 0.06641,-6.89844 0.15234,-6.96484c0.24609,-0.26562 2.39063,-0.17578 2.67969,0.11328zM53.47266,163.22656v1.44141l-9.05469,0.06641c-10.34375,0.06641 -9.87891,-0.02344 -9.87891,1.83984c0,0.57813 0.08984,1.13281 0.22266,1.19922c0.10938,0.06641 3.91797,0.13281 8.48047,0.10937c6.42187,0 8.34766,0.04297 8.63672,0.28906c0.33203,0.22266 0.39844,0.53125 0.33203,1.59766l-0.06641,1.32813l-8.74609,0.11328c-4.80469,0.06641 -8.76953,0.15234 -8.79297,0.17578c-0.04297,0.02344 -0.06641,0.55469 -0.06641,1.19922c0,2.0625 -0.59766,1.94922 9.89844,1.94922h9.16797l-0.06641,1.48828l-0.06641,1.50781l-9.67578,0.06641c-8.87891,0.04297 -9.76562,0.01953 -10.51953,-0.33203c-0.44141,-0.22266 -1.01562,-0.6875 -1.26172,-1.02344c-0.44141,-0.59766 -0.46484,-0.88672 -0.46484,-6.69531v-6.07812l0.75391,-0.77344c0.42187,-0.42187 1.01953,-0.82422 1.32812,-0.86719c0.30859,-0.04297 4.91406,-0.08984 10.20703,-0.06641l9.63281,0.02344zM59.96094,161.94141c0.17578,0.17578 0.26562,1.19531 0.26562,3.08203c0,2.0625 0.06641,2.83594 0.28516,2.88281c0.13281,0.04297 3.69922,0.04297 7.90625,-0.02344l7.63672,-0.10937l0.11328,-2.99609l0.10938,-2.99219l0.97656,-0.06641c0.55078,-0.04687 1.21484,-0.02344 1.50391,0.06641l0.50781,0.10938v7.62891c0,6.30078 -0.04297,7.67578 -0.30859,7.875c-0.17578,0.15234 -0.82031,0.24219 -1.50391,0.19922l-1.17578,-0.06641l-0.10937,-3.10547l-0.11328,-3.10547h-15.71875l-0.06641,2.85938c-0.02344,1.66406 -0.15625,2.99609 -0.30859,3.17187c-0.35547,0.44531 -2.74609,0.40234 -2.92578,-0.06641c-0.06641,-0.19922 -0.13281,-3.65625 -0.13281,-7.71484c0,-5.43359 0.06641,-7.42969 0.26563,-7.62891c0.35547,-0.35547 2.4375,-0.35547 2.79297,0zM104.61719,163.22656v1.44141l-4.40625,0.06641c-2.80859,0.02344 -4.51563,0.13281 -4.71484,0.28906c-0.22266,0.19922 -0.28906,1.52734 -0.28906,6.1875c0,4.85547 -0.06641,5.98828 -0.30859,6.1875c-0.17578,0.15234 -0.82031,0.24219 -1.50391,0.19922l-1.17578,-0.06641l-0.10937,-6.10156c-0.06641,-3.34766 -0.19922,-6.23047 -0.28906,-6.38672c-0.13281,-0.19922 -1.30469,-0.26562 -4.55859,-0.26562c-3.10156,0 -4.42969,-0.06641 -4.62891,-0.26562c-0.42187,-0.42187 -0.33203,-2.32812 0.13281,-2.59375c0.24219,-0.15625 4.09766,-0.22266 11.11328,-0.17969l10.73828,0.04688zM129.04297,162.33984c0.97266,0.73047 1.4375,2.35156 1.32813,4.63281c-0.08984,1.99609 -0.59766,3.14844 -1.61719,3.79297c-0.6875,0.42188 -1.08594,0.44531 -9.03516,0.44531c-7.37109,0 -8.32422,0.04297 -8.43359,0.35547c-0.06641,0.19922 -0.13281,1.57422 -0.13281,3.10156c0,3.10547 0.01953,3.08594 -2.01562,2.92969l-0.97656,-0.06641l-0.06641,-7.74219c-0.04297,-6.05469 0.02344,-7.78125 0.22266,-7.9375c0.15625,-0.11328 4.71484,-0.15625 10.14063,-0.13281l9.85156,0.06641zM153.59766,161.87109c0.83984,0.24609 1.4375,0.77734 1.92578,1.73047c0.30859,0.60156 0.35156,1.64063 0.35156,7.12109c0,4.67969 -0.06641,6.45313 -0.26562,6.65234c-0.35156,0.35547 -2.5,0.33203 -2.78906,-0.02344c-0.15234,-0.17578 -0.28516,-1.50781 -0.30859,-3.17187l-0.06641,-2.85938h-15.72266l-0.21875,6.21094l-1.30859,0.06641c-0.70703,0.04297 -1.39453,-0.02344 -1.52734,-0.15625c-0.35156,-0.35547 -0.19922,-13.26172 0.17969,-13.97266c0.41797,-0.82031 1.23828,-1.50781 1.87891,-1.64062c1.08594,-0.19922 17.18359,-0.15625 17.87109,0.04297zM182.75781,161.98438c0.39844,0.15625 0.94922,0.59766 1.21484,0.97656c0.46484,0.66406 0.46484,0.82031 0.42188,7.62891l-0.06641,6.94141l-1.03906,0.06641c-2.03906,0.13281 -1.94922,0.39844 -1.94922,-6.1875c0,-3.55078 -0.08984,-5.94531 -0.22266,-6.21094c-0.21875,-0.39844 -0.55078,-0.42187 -7.72656,-0.42187c-5.77734,0 -7.55078,0.06641 -7.72656,0.28906c-0.15625,0.15625 -0.26562,2.23828 -0.3125,5.41016c-0.06641,4.79297 -0.08594,5.16797 -0.53125,5.76563c-0.73047,1 -1.74609,1.375 -3.69531,1.39844c-1.64062,0 -1.72656,-0.02344 -1.92578,-0.57422c-0.24609,-0.64453 -0.28906,-1.66406 -0.08984,-2.17578c0.10938,-0.26562 0.44141,-0.35547 1.32813,-0.35547c1.83984,0 1.85938,-0.06641 1.85938,-5.76562c0,-5.36719 0.13281,-5.94141 1.55078,-6.69531c0.70703,-0.37891 1.46094,-0.40234 9.47656,-0.40234c6.91016,0 8.83594,0.06641 9.43359,0.3125zM190.66016,161.89453c0.37891,0.22266 0.42188,0.48828 0.42188,3.10547c0,2.15234 0.06641,2.88281 0.28906,2.88281c0.13281,0.02344 3.60938,0.02344 7.68359,0c4.07031,0 7.8125,0.08984 8.27734,0.19922c1.97266,0.46484 2.63672,1.50781 2.74609,4.32422c0.13281,3.0625 -0.44141,4.39063 -2.14453,4.96875c-0.53516,0.17578 -3.65625,0.26563 -10.32031,0.26563c-8.54687,0 -9.60937,-0.04297 -9.71875,-0.35547c-0.06641,-0.19922 -0.13281,-3.72656 -0.13281,-7.85156c0,-5.78516 0.06641,-7.51562 0.28516,-7.60547c0.48828,-0.22266 2.17188,-0.15625 2.61328,0.06641zM216.27734,164.66797c0.02344,1.57422 0.13281,2.94922 0.24609,3.05859c0.13281,0.13281 10.9375,0.24609 15.47656,0.15625c0.19922,0 0.26563,-0.71094 0.26563,-2.83984c0,-1.90625 0.08984,-2.92578 0.26563,-3.10156c0.35547,-0.35547 2.43359,-0.35547 2.78906,0c0.19922,0.19922 0.26563,2.19531 0.26563,7.62891c0,4.05859 -0.06641,7.51563 -0.13281,7.71484c-0.17578,0.44531 -2.61328,0.51172 -2.89844,0.06641c-0.08984,-0.13281 -0.22266,-1.55078 -0.28906,-3.14844l-0.10937,-2.88281h-15.72266l-0.10937,3.10547l-0.11328,3.10547l-1.17188,0.06641c-0.6875,0.04297 -1.32812,-0.04687 -1.50391,-0.19922c-0.42187,-0.35547 -0.46484,-15.39063 -0.02344,-15.59375c0.13281,-0.04297 0.82031,-0.08594 1.48438,-0.06641l1.21484,0.04688zM241.74219,161.94141c0.17578,0.17578 0.26562,1.17188 0.26562,2.99219c0,2.01953 0.06641,2.77344 0.28906,2.83984c0.15234,0.06641 3.85156,0.13281 8.23438,0.17578c8.72266,0.04297 8.87891,0.06641 9.89844,1.375c0.46484,0.59766 0.50781,0.86719 0.50781,3.59375c0,2.90625 0,2.92578 -0.61719,3.57031c-1.08594,1.15234 -1.46484,1.17578 -11.78125,1.10938l-9.51953,-0.06641l-0.06641,-7.65234c-0.02344,-4.21484 0,-7.78516 0.06641,-7.91797c0.13281,-0.375 2.36719,-0.375 2.72266,-0.01953zM267.20313,161.85156c0.19922,0.15625 0.26563,1.88281 0.22266,7.9375l-0.06641,7.74219l-1.32812,0.06641c-1.03906,0.06641 -1.37109,0 -1.59375,-0.3125c-0.22266,-0.30859 -0.28906,-2.10547 -0.28906,-7.64844c0,-8.25 -0.06641,-7.96484 1.72656,-7.96484c0.57813,0 1.17578,0.08984 1.32813,0.17969zM273.625,161.94141c0.19922,0.19922 0.26563,1.75 0.26563,5.65234c0,5.98828 -0.01953,5.92188 1.39453,4.85938c3.05859,-2.33203 13.41797,-10.02734 13.97266,-10.35937c0.79688,-0.48828 2.98828,-0.57422 3.41016,-0.15234c0.19922,0.19922 0.26563,2.19531 0.26563,7.62891c0,4.05859 -0.06641,7.51563 -0.13281,7.71484c-0.19922,0.51172 -2.63672,0.51172 -2.83594,0c-0.06641,-0.19922 -0.13281,-2.72656 -0.13281,-5.65234c0,-4.96875 -0.01953,-5.30078 -0.39844,-5.30078c-0.21875,0 -2.83203,1.81641 -5.82031,4.03516c-5.42578,4.05859 -7.88281,5.85547 -9.21094,6.80859c-0.59766,0.39844 -0.95312,0.46484 -2.10547,0.42188l-1.39453,-0.06641l-0.06641,-7.65234c-0.02344,-4.21484 0,-7.78516 0.06641,-7.91797c0.13281,-0.375 2.36719,-0.375 2.72266,-0.01953zM273.625,161.94141"></path><path d="M133.64844,11.71094c-0.08984,0.13281 -0.04688,0.86328 0.06641,1.64062c0.21875,1.30859 0.50781,3.21484 1.26172,8.16016c0.17578,1.15234 0.46484,2.99609 0.64063,4.10156c0.17578,1.08984 0.35547,2.41797 0.42187,2.95313c0.13281,1.30469 0.44141,1.59375 1.66016,1.59375c0.55469,0 2.92188,0.13281 5.22656,0.33203c2.32422,0.17969 6.39844,0.48828 9.07813,0.66797c2.67578,0.17578 6.81641,0.48828 9.1875,0.66406c2.36719,0.19922 4.76172,0.33203 5.3125,0.33203c0.55469,0 2.83594,0.13281 5.09375,0.33203c9.1875,0.73438 13.01953,1 14.28125,1c0.73047,0 2.67969,0.15625 4.31641,0.33203c3.43359,0.37891 5.44922,0.42188 5.625,0.13281c0.17578,-0.28906 -4.07422,-5.78906 -4.73828,-6.12109c-0.30859,-0.15625 -0.99609,-0.46484 -1.55078,-0.66406c-0.55469,-0.19922 -1.28516,-0.51172 -1.61719,-0.6875c-0.35156,-0.17969 -0.77344,-0.3125 -0.92969,-0.3125c-0.15234,0 -0.57422,-0.13281 -0.92969,-0.30859c-0.33203,-0.17969 -1.0625,-0.48828 -1.61719,-0.6875c-0.55078,-0.22266 -1.28125,-0.51172 -1.66016,-0.66406c-0.35156,-0.15625 -1.0625,-0.44531 -1.54687,-0.62109c-0.48828,-0.17969 -1.68359,-0.64453 -2.66016,-1.04297c-0.97266,-0.39844 -2.16797,-0.86719 -2.65625,-1.04297c-0.48437,-0.19922 -1.08594,-0.42187 -1.32812,-0.53125c-0.24219,-0.08984 -0.99609,-0.40234 -1.66016,-0.64453c-0.66406,-0.26562 -1.96875,-0.79687 -2.87891,-1.15234c-0.90625,-0.37891 -2.01562,-0.80078 -2.43359,-0.95312c-0.42187,-0.15625 -1.57422,-0.60156 -2.54687,-1c-1.68359,-0.66406 -2.54687,-1.01953 -4.32031,-1.66406c-4.11719,-1.55078 -10.14062,-2.92578 -16.9375,-3.90234c-2.56641,-0.35547 -9.98437,-0.53125 -10.16016,-0.24219zM133.64844,11.71094"></path><path d="M125.76563,11.97656c-0.79687,0.08984 -2.23828,0.17578 -3.21094,0.19922c-1.66016,0.02344 -4.05469,0.17578 -15.94141,1.01953c-2.54687,0.19922 -5.29297,0.33203 -6.08984,0.33203c-0.79688,0 -3.03516,0.15625 -4.98438,0.33203c-1.94531,0.17969 -4.51562,0.33594 -5.71094,0.33594c-1.76953,0 -2.19141,0.06641 -2.30078,0.35156c-0.06641,0.19922 -0.02344,1.10938 0.13281,2.04297c0.13281,0.95313 0.35156,2.75 0.46484,4.03516c0.13281,1.28516 0.35156,2.44141 0.50781,2.57422c0.28906,0.28516 2.43359,0.73047 6.35547,1.30859c1.28516,0.19922 3.23047,0.48438 4.31641,0.66406c1.10547,0.17578 3.03516,0.46484 4.31641,0.66406c1.28516,0.19922 3.23438,0.48828 4.32031,0.66797c1.10547,0.17578 3.03125,0.46484 4.31641,0.66406c1.28516,0.19922 3.23438,0.48828 4.31641,0.66406c1.10938,0.17969 3.03516,0.46484 4.32031,0.66406c1.28125,0.20313 3.16406,0.51172 4.20703,0.6875c1.03906,0.20313 2.47656,0.3125 3.20703,0.26953l1.33203,-0.06641l-0.02344,-0.77734c-0.02344,-0.42187 -0.13281,-4.28125 -0.24219,-8.5625c-0.13281,-4.27734 -0.28906,-7.89453 -0.37891,-8.02734c-0.17578,-0.28906 -0.95312,-0.28906 -3.23047,-0.04297zM125.76563,11.97656"></path><path d="M79.48828,14.85938c-1.94922,0.08984 -3.21094,0.24219 -3.58594,0.46484c-0.95312,0.51172 -5.26953,4.21484 -5.26953,4.50391c0,0.82031 1.23828,1.17578 6.86328,2.01563c1.28516,0.19922 3.23047,0.51172 4.31641,0.6875c1.10938,0.17969 2.17188,0.26563 2.37109,0.19922c0.35156,-0.13281 0.375,-0.48828 0.24219,-3.72266c-0.06641,-1.97656 -0.22266,-3.77344 -0.33203,-3.99219c-0.13281,-0.24609 -0.42187,-0.35547 -0.90625,-0.33594c-0.39844,0.02344 -2.0625,0.08984 -3.69922,0.17969zM79.48828,14.85938"></path><path d="M88.875,27.78906c-0.06641,0.17578 -0.08594,0.70703 -0.04297,1.17578c0.06641,0.97656 -0.30859,0.86328 4.71484,1.52734c1.46094,0.20312 3.16797,0.44531 3.76563,0.55469c0.79688,0.13281 1.19531,0.11328 1.39453,-0.08594c0.35547,-0.35547 0.70703,-1.55469 0.50781,-1.86328c-0.19922,-0.3125 -5.91016,-1.30859 -8.92187,-1.53125c-0.99609,-0.08984 -1.30469,-0.02344 -1.41797,0.22266zM88.875,27.78906"></path><path d="M139.20313,35.64063c-0.15234,1.39453 0.04688,1.55078 2.21484,1.70703c1.08594,0.06641 3.1875,0.22266 4.71484,0.33203c1.92969,0.15625 2.83594,0.15625 3.03516,-0.02344c0.375,-0.30859 0.375,-1.92969 0.02344,-2.03906c-0.57812,-0.17578 -7.41797,-0.79688 -8.61328,-0.79688h-1.26172zM139.20313,35.64063"></path><path d="M125.65234,80.92578c-0.10937,0.22266 21.5,11.10938 22.03125,11.10938c0.51172,0 22.14063,-10.91016 22.00781,-11.10937c-0.15234,-0.26562 -43.85937,-0.26562 -44.03906,0zM125.65234,80.92578"></path><path d="M144.80469,98.02344c-1.39453,0.71094 -5.08984,2.55078 -8.19141,4.10547c-3.09766,1.55078 -5.71094,2.92578 -5.80078,3.05859c-0.19922,0.30859 -0.22266,3.37109 -0.04297,4.05859c0.08594,0.35547 2.125,1.46484 8.41406,4.58984c4.55859,2.28516 8.36719,4.14844 8.5,4.14844c0.11328,0 3.96484,-1.86328 8.52344,-4.14844l8.32813,-4.16797l-0.13281,-4.65625l-8.19531,-4.14844c-4.49219,-2.26172 -8.34375,-4.14844 -8.52344,-4.14844c-0.17578,0 -1.48437,0.57813 -2.87891,1.30859zM144.80469,98.02344"></path><path d="M139.18359,126.74219c-4.36328,2.19922 -7.92969,4.10547 -7.90625,4.21484c0.02344,0.28906 32.57031,0.42188 32.85938,0.13281c0.24219,-0.24219 -16.00781,-8.47266 -16.60547,-8.40625c-0.22266,0.02344 -3.96484,1.84375 -8.34766,4.05859zM139.18359,126.74219"></path><path d="M238.22266,99.99609c-1.77344,0.75781 -3.36719,1.92969 -4.36328,3.19531c-3.07812,3.96875 -2.58984,9.91406 1.10547,13.35156c2.14844,1.99609 4.07422,2.77344 6.95313,2.77344c1.72656,0 2.28125,-0.08984 3.58984,-0.64453c3.47266,-1.39844 5.57813,-3.99219 6.35156,-7.71875c0.33203,-1.59766 0.33203,-1.83984 -0.01953,-3.39453c-0.86328,-3.85547 -3.21094,-6.53906 -6.84375,-7.80469c-0.75391,-0.28906 -1.75,-0.39844 -3.21094,-0.39844c-1.81641,0.02344 -2.30078,0.10938 -3.5625,0.64063zM243.60156,105.03125c1.28516,0.51172 2.32422,1.70703 2.74609,3.12891c0.30859,1.0625 0.30859,1.28516 0,2.35156c-0.19922,0.66406 -0.62109,1.46094 -1.03906,1.88281c-0.84375,0.86719 -2.41406,1.59766 -3.41016,1.59766c-1.73047,0 -4.09766,-1.79688 -4.40625,-3.37109c-0.51172,-2.55078 0.39844,-4.45703 2.58984,-5.5c1.15234,-0.53125 2.28125,-0.55469 3.51953,-0.08984zM243.60156,105.03125"></path><path d="M51.01563,145.81641c-0.39844,0.17578 -1.01953,0.6875 -1.39453,1.15234c-0.62109,0.75391 -0.6875,0.97656 -0.6875,2.32813c0,1.73047 0.39844,2.57422 1.61719,3.41797c1.01563,0.6875 2.875,0.73047 4.11719,0.08594c1.96875,-0.99609 2.43359,-4.45703 0.83984,-6.16406c-1.01562,-1.08594 -3.03125,-1.46484 -4.49219,-0.82031zM51.01563,145.81641"></path><path d="M9.23438,146.74609c-0.48828,0.84375 -1.50781,3.70703 -1.39453,3.97266c0.08594,0.26563 0.44141,0.30859 1.61328,0.26563c1.88281,-0.08984 1.94922,-0.3125 0.86328,-2.68359c-0.75,-1.6875 -0.88281,-1.86328 -1.08203,-1.55469zM9.23438,146.74609"></path><path d="M21.85547,145.64063c-0.08984,0.06641 -0.15625,0.77344 -0.15625,1.55078v1.39844h1.85938c1.72656,0 1.88281,-0.04687 2.21484,-0.55469c0.64062,-0.97656 0.30859,-1.88672 -0.84375,-2.32812c-0.66406,-0.24609 -2.85547,-0.3125 -3.07422,-0.06641zM21.85547,145.64063"></path><path d="M21.74219,151.51563l0.06641,1.62109l1.68359,0.06641c1.41797,0.04297 1.75,0 2.25781,-0.40234c0.77734,-0.62109 0.82031,-1.70703 0.08984,-2.39453c-0.44531,-0.42187 -0.77734,-0.48828 -2.34766,-0.48828h-1.81641zM21.74219,151.51563"></path><path d="M95.69531,145.77344c-0.19922,0.21875 -0.26562,0.92969 -0.22266,2.19531l0.06641,1.83984l1.39844,0.06641c1.63672,0.06641 2.30078,-0.24219 2.85547,-1.375c0.30859,-0.6875 0.30859,-0.79687 -0.04687,-1.55078c-0.44141,-0.93359 -0.92969,-1.17578 -2.60937,-1.375c-0.91016,-0.11328 -1.24219,-0.06641 -1.44141,0.19922zM95.69531,145.77344"></path><path d="M109.17969,145.79297c-0.15625,0.17969 -0.24219,0.82031 -0.19922,1.50781l0.06641,1.17578l1.75,0.06641c2.10156,0.06641 2.56641,-0.19922 2.56641,-1.55078c0,-0.77734 -0.08594,-0.88672 -0.77344,-1.19922c-0.99609,-0.39844 -3.07812,-0.42187 -3.41016,0zM109.17969,145.79297"></path><path d="M109.08984,150.07422c-0.26562,0.24609 -0.17578,2.61719 0.11328,2.90625c0.15234,0.15625 0.92969,0.26563 1.88281,0.26563c1.4375,0 1.70312,-0.06641 2.16797,-0.55469c0.30859,-0.28906 0.55469,-0.79687 0.55469,-1.10937c0,-0.30859 -0.24609,-0.82031 -0.55469,-1.10937c-0.46484,-0.48828 -0.73047,-0.55469 -2.28125,-0.55469c-0.94922,0 -1.81641,0.06641 -1.88281,0.15625zM109.08984,150.07422"></path><path d="M111.37109,165.19922c-0.28516,0.55469 -0.28516,2.39453 0,2.57422c0.35547,0.21875 15.34375,0.13281 15.56641,-0.08984c0.10938,-0.10937 0.22266,-0.59766 0.28906,-1.10937c0.06641,-0.71094 -0.02344,-1.01953 -0.35547,-1.35156c-0.42187,-0.42187 -0.75391,-0.44531 -7.85937,-0.44531c-7.08594,0 -7.41797,0.02344 -7.64062,0.42188zM111.37109,165.19922"></path><path d="M137.27734,164.93359c-0.17578,0.06641 -0.39844,0.24219 -0.48828,0.375c-0.24219,0.35547 -0.21875,2.30859 0.02344,2.46484c0.15625,0.08594 12.42188,0.17578 15.47656,0.10937c0.17969,0 0.26563,-0.42187 0.26563,-1.33203c0,-1.0625 -0.08594,-1.35156 -0.41797,-1.55078c-0.46875,-0.24219 -14.23828,-0.28906 -14.85937,-0.06641zM137.27734,164.93359"></path><path d="M191.17188,171.51953c-0.06641,0.15625 -0.08984,0.88672 -0.04687,1.59766l0.06641,1.30859l7.46484,0.06641c7.23828,0.04297 7.48047,0.04297 7.92578,-0.39844c0.28516,-0.28906 0.44141,-0.73437 0.44141,-1.30859c0,-1.62109 0.22266,-1.57422 -8.21484,-1.57422c-6.13281,0 -7.55078,0.04297 -7.63672,0.30859zM191.17188,171.51953"></path><path d="M242.16406,171.36328c-0.26562,0.24609 -0.17969,2.61719 0.10938,2.90625c0.19922,0.19922 2.19141,0.26563 7.61719,0.26563c6.39844,0 7.41797,-0.04297 7.70313,-0.35547c0.42188,-0.41797 0.48828,-2.30469 0.08984,-2.70313c-0.19922,-0.19922 -2.23438,-0.26562 -7.81641,-0.26562c-4.16016,0 -7.63672,0.06641 -7.70313,0.15234zM242.16406,171.36328"></path></g></g></g></g></svg>