<svg xmlns="http://www.w3.org/2000/svg" xml:space="preserve" width="35" height="35" style="shape-rendering:geometricPrecision;text-rendering:geometricPrecision;image-rendering:optimizeQuality;fill-rule:evenodd;clip-rule:evenodd" viewBox="0 0 187 187"><defs><style>.fil1{fill:#fefefe}</style></defs><g id="Layer_x0020_1"><g id="_521245888"><rect width="187" height="187" rx="18" ry="18" style="fill:#009846"></rect><path d="M95 146c-11 0-22-3-31-9l-21 7 7-20c-6-9-10-20-10-32v-5c3-28 26-50 55-50s52 22 55 51v4c0 30-25 54-55 54m65-56c-1-35-30-63-65-63S31 54 29 89v3c0 12 4 24 10 33l-12 35 36-11c9 5 20 8 32 8 36 0 65-29 65-65z" class="fil1"></path><path d="M125 105c-2-1-10-5-11-5-2-1-3-1-4 1-1 1-4 5-5 6s-2 1-3 0c-2-1-7-2-13-8-5-4-8-9-9-11-1-1 0-2 0-3l3-3v-1c1 0 1-1 1-1 1-2 1-2 0-3 0-1-3-9-5-12-1-3-2-3-3-3h-3c-1 0-3 1-5 2-1 2-5 6-5 13 0 2 0 4 1 6 1 5 5 10 5 11 1 1 11 18 28 24 16 6 16 4 19 4s10-4 11-8c1-3 1-7 1-7-1-1-2-1-3-2" class="fil1"></path></g></g></svg>